# xmcd CD database file
#
# Track frame offsets:
#	150
#	8823
#	30078
#	50619
#	70180
#	81087
#	99529
#	113578
#	130026
#	151894
#	165285
#	187156
#	221746
#
# Disc length: 3522 seconds
#
# Revision: 0
# Processed by: cddbd v1.5.2PL0 Copyright (c) Steve Scherf et al.
# Submitted via: CDex 1.70beta2
#
DISCID=9c0dc00d
DTITLE=Sofalofa - Mellifluous
DYEAR=2006
DGENRE=Jazz
TTITLE0=Packdressdance
TTITLE1=Florence
TTITLE2=Plinky Plonk
TTITLE3=Shelf Shelving Shelf
TTITLE4=Heartwarm
TTITLE5=Clear
TTITLE6=Merrygoround
TTITLE7=Rain
TTITLE8=Counterbalance
TTITLE9=Ms Fortune
TTITLE10=Contact
TTITLE11=Mellifluous
TTITLE12=Magic Shopkeeper [video]
EXTD=YEAR: 2006
EXTT0=
EXTT1=
EXTT2=
EXTT3=
EXTT4=
EXTT5=
EXTT6=
EXTT7=
EXTT8=
EXTT9=
EXTT10=
EXTT11=
EXTT12=
PLAYORDER=
